<svg xmlns="http://www.w3.org/2000/svg" viewBox="0 0 576.91 504.8"><defs><style>.cls-1,.cls-3{fill:#fff;}.cls-2{fill:none;stroke:#fff;stroke-miterlimit:10;stroke-width:2.42px;}.cls-3{font-size:78.89px;font-family:BeyondInfinity, Beyond Infinity - Demo;}</style></defs><title>limav-logo</title><g id="Capa_2" data-name="Capa 2"><g id="Capa_1-2" data-name="Capa 1"><path class="cls-1" d="M492.31,159a187.11,187.11,0,0,0-9.26-32.71c-3.39-9-7.12-17.87-12.6-25.87h0c-4.27-8.84-10-16.73-16-24.44a195,195,0,0,0-69.34-56.11A198,198,0,0,0,275.71,1.38c-13.87,1.74-27.26,5.33-40.69,9-33.48,9.08-62.37,26.1-87.15,50.15a201.55,201.55,0,0,0-53.44,93.67,199.13,199.13,0,0,0,43,178.85,199.74,199.74,0,0,0,129.88,68.26,198.53,198.53,0,0,0,59.15-2.42c14.66-2.7,28.69-7.47,42.48-13.17,24-9.95,44.42-25.28,63.12-42.86,11.82-11.13,21.14-24.53,29.17-38.69,8.28-14.63,15-29.92,18.92-46.34,3-8.34,4.3-17.06,5.5-25.77a187.38,187.38,0,0,0,.76-45.64c-.89-8.32-1.7-16.7-4.55-24.7.46,5.13,1.1,10.24,1.81,15.33,2.57,18.42,1.87,36.79-.81,55.14-1.26,8.6-3.72,16.94-5.4,25.44h0c-.51,1.37-1.08,2.71-1.52,4.1a189.16,189.16,0,0,1-45.4,75.16c-15,15.3-31.53,28.51-50.78,38.14a181.51,181.51,0,0,1-51.15,17.12,45.48,45.48,0,0,0-4.82.17,185.31,185.31,0,0,1-63.51-2c-37.6-7.77-70.61-24.71-98.15-51.68a193.78,193.78,0,0,1-45.94-69.06,5.6,5.6,0,0,0-.21-1.18,193.91,193.91,0,0,1-5.14-123.48c2-7,4.6-13.92,6.93-20.87h0c1.61-3.35,3.23-6.71,4.83-10.07,7.18-15.07,16-29.18,27.13-41.53a188.25,188.25,0,0,1,66.63-47.34c38.08-16.23,77.41-20,117.91-11.61a194.28,194.28,0,0,1,54.64,20.45l14.55,9.74.59-.92c-4.54-3.53-8.88-7.34-14.19-9.81h0C359.48,14,326.17,5.1,290.65,3.58c11.44-.92,22.79,0,34.07,1.49a197.84,197.84,0,0,1,60.77,18.55,187.57,187.57,0,0,1,43.9,30.09,198,198,0,0,1,40.1,49.36c.59,1.2,1.16,2.41,1.79,3.59a198.9,198.9,0,0,1,23.18,96.5c-.12,11-2.07,21.79-3.3,32.66a3.5,3.5,0,0,0-.6,1,187.42,187.42,0,0,1-12.41,40.06c-1,2.42-2.74,4.69-2.5,7.57,7.49-15.24,13.64-30.94,16.35-47.82h0c.56-2.88,1.13-5.76,1.69-8.64,2.6-13.52,1.31-27.21,1.7-40.83C495.66,177.63,494,168.3,492.31,159ZM100.15,204.13A199.46,199.46,0,0,0,112,266.67c.51,1.41.91,2.93,2.37,3.72a1.76,1.76,0,0,0-.24.38c-.13,2,.79,3.67,1.57,5.35a247.7,247.7,0,0,0,16.41,30.44,196.6,196.6,0,0,0,37.22,42.53A193.53,193.53,0,0,0,226,383a195.82,195.82,0,0,0,41.49,11.15,200.19,200.19,0,0,1-38.08-8.55c-28.61-9.33-53.37-25-74.68-46.1a185.19,185.19,0,0,1-34.83-48c-18-35.34-24.65-72.63-19.71-112a188.55,188.55,0,0,1,4.59-24.23A200.65,200.65,0,0,0,100.15,204.13Z"/><path class="cls-1" d="M160.51,258.86c.25-10.51.25-29.56.25-35.71,0-2.56-.34-5-.17-7.77.26-2,1.11-3.33,4.45-3.33h5.72c3.93,0,4.53,2.73,4.78,5.29a38.28,38.28,0,0,1,0,4.62c-.08,7.26-.51,27.5-.34,36.22,5.73.08,15.89,0,18.45-.26,3.08-.34,4.45,1.54,4.45,4.36,0,1.45,0,2.82-.09,4.27.09,2.73-.6,3.59-4.36,3.59H165.46c-3.93,0-4.7-2.74-4.87-5.38C160.42,263.47,160.51,261.34,160.51,258.86Z"/><path class="cls-1" d="M209.63,220.42c-.09-3.5-1.88-8.37,4.7-8.37h5.46c5,0,5,4.1,5,7.34-.26,7.09-.6,37.25-.26,42.38.26,3.5,2,8.37-4.61,8.37H214.5c-5,0-5.13-4.19-5-7.43C209.8,254.5,209.63,226.65,209.63,220.42Z"/><path class="cls-1" d="M242,218.37c.17-2,0-6.32,4.61-6.32h10c1.88,0,4.7.42,5.47,3.76.77,2.9,9,30.66,9,30.66h.68s9-28.44,9.66-30.75c.68-3.59,3.59-3.67,5.89-3.67H297c5,0,4.87,4.1,5,7.34.34,5.56,2.9,35.71,3.67,43.91.17,3.51,2,6.84-4.78,6.84H296c-5.3,0-4.53-3.16-4.79-6.32-.34-4.1-1.62-29.39-2.22-36.48h-.6c-1.45,5.3-8.2,26.82-9,30.32-.59,2.48-2.13,3.17-3.76,3.17h-8.2a4.29,4.29,0,0,1-4.27-3.17c-.94-4.18-7.69-25.54-8.88-30.15h-.52l-1.45,36.56c-.17,3.59.69,6.07-4.44,6.07h-5.38c-5,0-5.38-2.48-5-5.64C238.5,256.3,241.58,222.38,242,218.37Z"/><path class="cls-1" d="M314.45,263.73c2.39-8.46,13-42.63,13.75-45.79.86-3.5,1.46-5.89,7-5.89H345.8c4.53,0,5.9,2.39,6.75,5.64s11.28,40.32,12.56,45.7c.77,3.59,1.19,6.75-3.16,6.75h-4.7c-5,0-5.38-3.68-5.9-5.47-.42-1.11-1.11-3.84-2.3-7H331.19c-1.11,3.42-2,6.07-2.13,6.84-.43,3.59-1.11,5.64-5.21,5.64h-6.58C314,270.14,313.6,266.81,314.45,263.73Zm32.55-16c-2.74-10.51-5.9-22.56-6.67-26.06h-.51c-.85,4.1-4,16-6.75,26.06Z"/><path class="cls-1" d="M372.11,218.8c-.76-3.59-1.19-6.75,3.08-6.75H380c5,0,5.47,3.67,5.9,5.46,1.11,5,9.22,36.82,10.59,43H397c1.46-7.51,9.74-40.23,10.34-42.79.68-3.59.77-5.64,5.3-5.64H419c3.34,0,3.76,3.33,2.91,6.4-2.31,8.46-12.47,42.63-13.24,45.79-.94,3.51-1.63,5.9-7.09,5.9H391c-4.61,0-6-2.39-6.75-5.64S373.4,224.18,372.11,218.8Z"/><path class="cls-1" d="M161.85,289.55c0-1.58-.81-3.77,2.15-3.77h7.88c6.76,0,10.49,3.88,10.3,9.11s-3.42,9.22-10,9.22h-3.73c0,1,0,3.61,0,4,.08,1.57.88,3.76-2.07,3.76h-2.46c-2.23,0-2.27-1.88-2.23-3.34C161.81,304.88,161.85,290.62,161.85,289.55Zm9.3,10.14c3.31,0,4.61-1.88,4.65-4.53s-1.11-4.69-4.46-4.69h-2.92c-.15,1.73-.07,7.11-.11,9.22Z"/><path class="cls-1" d="M187,289.51c0-1.58-.61-3.73,2.31-3.73h8c6.69,0,10.22,3.69,10.11,9a8,8,0,0,1-4.84,7.31l3.07,4.15a2.4,2.4,0,0,0,2.5,1.19c.84,3.72-.73,4.92-3.38,4.92-2.42,0-3.46-1.27-4.46-3.12l-3.61-6h-3.12c0,.92-.11,4.8,0,6.07.16,2-.38,2.65-2,2.65h-2.42c-2.23,0-2.27-1.88-2.23-3.34C186.94,304.88,187,290.62,187,289.51Zm9.53,9.45c2.81,0,4.5-1.42,4.5-4.26,0-2-1.16-4.23-4.42-4.23h-3.23c-.08,2,0,7,0,8.49Z"/><path class="cls-1" d="M223.75,285.39c7.77,0,12.07,5.85,12,13.46s-4.07,13.45-11.83,13.45c-8.11,0-12.11-5.81-12-13.45S215.68,285.39,223.75,285.39ZM229,298.81c0-4.23-1.19-8-5.19-8s-5.3,3.73-5.26,8,1.15,8,5.26,8S229,302.92,229,298.81Z"/><path class="cls-1" d="M240.81,289.55c0-1.58-.8-3.77,2.16-3.77h7.87c6.77,0,10.49,3.88,10.3,9.11s-3.42,9.22-10,9.22h-3.73c0,1,0,3.61,0,4,.08,1.57.89,3.76-2.07,3.76h-2.46c-2.23,0-2.27-1.88-2.23-3.34C240.77,304.88,240.81,290.62,240.81,289.55Zm9.3,10.14c3.31,0,4.62-1.88,4.65-4.53s-1.11-4.69-4.45-4.69h-2.93c-.15,1.73-.07,7.11-.11,9.22Z"/><path class="cls-1" d="M266.29,289.55c0-1.58-.85-3.77,2.11-3.77h2.46c2.23,0,2.27,1.84,2.23,3.3-.11,3.19-.27,16.76-.11,19.07.11,1.57.88,3.76-2.08,3.76h-2.42c-2.27,0-2.31-1.88-2.27-3.34C266.37,304.88,266.29,292.35,266.29,289.55Z"/><path class="cls-1" d="M279.66,289.55c0-1.58-.81-3.77,2.15-3.77H295c1.73,0,2,.77,2,2v1.61c0,1.31-.65,1.85-2.07,1.81-1.92,0-5.31,0-8.61,0l0,5.38c2.5,0,6.38,0,7.3,0a1.41,1.41,0,0,1,1.62,1.5v1.73c0,1.23-.39,1.42-1.5,1.46s-4.92,0-7.46,0c0,2,0,3.73,0,5.38,2.69,0,7.57,0,8.76-.12,1.39-.07,2,.54,2,1.85v2.11c0,1.23-.27,1.5-2,1.5H281.85c-2.23,0-2.27-1.88-2.23-3.34C279.74,304.88,279.66,290.62,279.66,289.55Z"/><path class="cls-1" d="M302.48,289.55c0-1.58-.8-3.77,2.16-3.77h7.07c9.22,0,13.26,5.46,13.1,13.07s-3.76,13.06-13,13.06H304.6c-2.23,0-2.27-1.88-2.27-3.34C302.48,304.88,302.48,290.62,302.48,289.55Zm9.11,17.29c5.73,0,6.57-4,6.57-8.07s-1.19-7.92-6.57-7.92h-2.5c-.07,3.69-.07,11.65-.07,16Z"/><path class="cls-1" d="M328.23,309c1.07-3.81,5.84-19.18,6.19-20.6s.65-2.65,3.15-2.65h4.76c2,0,2.65,1.08,3,2.54s5.07,18.13,5.65,20.56c.34,1.61.54,3-1.42,3h-2.12c-2.27,0-2.42-1.65-2.65-2.46-.19-.5-.5-1.73-1-3.15h-8c-.5,1.54-.88,2.73-1,3.08-.19,1.61-.5,2.53-2.34,2.53h-3C328,311.91,327.84,310.41,328.23,309Zm14.64-7.19c-1.23-4.72-2.65-10.14-3-11.72h-.23c-.38,1.85-1.8,7.19-3,11.72Z"/><path class="cls-1" d="M355.74,289.55c0-1.58-.81-3.77,2.15-3.77H365c9.23,0,13.26,5.46,13.11,13.07s-3.77,13.06-13,13.06h-7.23c-2.22,0-2.26-1.88-2.26-3.34C355.74,304.88,355.74,290.62,355.74,289.55Zm9.11,17.29c5.72,0,6.57-4,6.57-8.07s-1.19-7.92-6.57-7.92h-2.5c-.08,3.69-.08,11.65-.08,16Z"/><path class="cls-1" d="M383.14,289.55c0-1.58-.81-3.77,2.15-3.77h13.22c1.73,0,2,.77,2,2v1.61c0,1.31-.65,1.85-2.08,1.81-1.92,0-5.3,0-8.6,0l0,5.38c2.49,0,6.38,0,7.3,0a1.4,1.4,0,0,1,1.61,1.5v1.73c0,1.23-.38,1.42-1.5,1.46s-4.92,0-7.45,0c0,2,0,3.73,0,5.38,2.69,0,7.57,0,8.76-.12,1.38-.07,2,.54,2,1.85v2.11c0,1.23-.27,1.5-2,1.5H385.33c-2.23,0-2.27-1.88-2.23-3.34C383.21,304.88,383.14,290.62,383.14,289.55Z"/><path class="cls-1" d="M405.38,307.11a5,5,0,0,1,1.16-2,12.37,12.37,0,0,0,6.88,1.92c2.34,0,3.8-1.15,3.76-2.84,0-1.27-1.11-2.19-3.61-2.81l-2.81-.69c-3.53-.89-6.07-2.73-6.22-6.84-.19-5.19,3.77-8.5,9.61-8.5a16.73,16.73,0,0,1,6.61,1.23c1.69.77,2.19,1.62,1.3,4.08a6.2,6.2,0,0,1-1,1.65,14.16,14.16,0,0,0-6.49-1.73c-2.35,0-3.58,1.12-3.54,2.77,0,1.42,1.39,2,3.23,2.5l2.92.77c5,1.38,6.53,3.88,6.69,7.14.23,5.5-4.31,8.5-10.22,8.5a18.3,18.3,0,0,1-6.5-1.12C405,310.3,404.73,309.14,405.38,307.11Z"/><path class="cls-2" d="M264.43,186.18c-.27-.8,0-34.58,0-34.58H316"/><line class="cls-2" x1="280.12" y1="151.6" x2="280.12" y2="186.18"/><line class="cls-2" x1="268.14" y1="158.51" x2="316.03" y2="158.51"/><line class="cls-2" x1="268.14" y1="164.9" x2="316.03" y2="164.9"/><line class="cls-2" x1="268.14" y1="171.28" x2="316.03" y2="171.28"/><line class="cls-2" x1="268.14" y1="178.33" x2="316.03" y2="178.33"/><polyline class="cls-2" points="275.6 151.6 275.6 104.78 319.62 94.4 319.62 186.84"/><line class="cls-2" x1="275.6" y1="104.78" x2="319.62" y2="104.78"/><line class="cls-2" x1="279.06" y1="111.56" x2="316.03" y2="111.56"/><line class="cls-2" x1="279.06" y1="118.34" x2="316.03" y2="118.34"/><line class="cls-2" x1="279.06" y1="125.13" x2="316.03" y2="125.13"/><line class="cls-2" x1="279.06" y1="131.58" x2="316.03" y2="131.58"/><line class="cls-2" x1="279.06" y1="138.36" x2="316.03" y2="138.36"/><line class="cls-2" x1="279.06" y1="144.98" x2="316.03" y2="144.98"/><line class="cls-2" x1="291.16" y1="104.78" x2="291.16" y2="151.6"/></g></g></svg>