<svg xmlns="http://www.w3.org/2000/svg" width="350.734" height="121.928" viewBox="0 0 350.734 121.928"><defs><style>.a{fill:#fff;}.b{fill:none;stroke:#fff;stroke-miterlimit:10;stroke-width:2.42px;}</style></defs><g transform="translate(0.006 -0.002)"><path class="a" d="M87.36,68.46c.26-10.51.26-29.56.26-35.71,0-2.57-.35-5-.17-7.78.25-2,1.11-3.33,4.44-3.33h5.72c3.93,0,4.53,2.73,4.79,5.3a42.859,42.859,0,0,1,0,4.61c-.09,7.26-.52,27.51-.35,36.22,5.73.09,15.89,0,18.46-.25,3.07-.35,4.44,1.53,4.44,4.35,0,1.45,0,2.82-.09,4.27.09,2.74-.6,3.59-4.35,3.59H92.31c-3.92,0-4.69-2.73-4.86-5.38a57.078,57.078,0,0,1-.09-5.89Z"/><path class="a" d="M136.48,30c-.08-3.5-1.88-8.37,4.7-8.37h5.47c4.95,0,5,4.1,4.95,7.35-.25,7.09-.6,37.24-.25,42.37.25,3.5,2,8.37-4.62,8.37h-5.38c-5,0-5.13-4.18-5-7.43C136.65,64.1,136.48,36.25,136.48,30Z"/><path class="a" d="M168.86,28c.17-2,0-6.32,4.61-6.32h10c1.88,0,4.7.43,5.46,3.76.77,2.9,9,30.67,9,30.67h.69s9-28.45,9.65-30.76c.68-3.58,3.59-3.67,5.89-3.67h9.74c5,0,4.87,4.1,5,7.35.34,5.55,2.9,35.71,3.67,43.91.17,3.5,2,6.83-4.78,6.83h-4.87c-5.3,0-4.53-3.16-4.79-6.32-.34-4.1-1.62-29.39-2.22-36.48h-.59c-1.46,5.3-8.21,26.83-9,30.33-.6,2.48-2.14,3.16-3.76,3.16h-8.2a4.29,4.29,0,0,1-4.36-3.2c-.94-4.19-7.68-25.54-8.88-30.16h-.51L179.2,73.67c-.18,3.58.68,6.06-4.45,6.06h-5.38c-5,0-5.38-2.48-5-5.64C165.36,65.89,168.43,32,168.86,28Z"/><path class="a" d="M241.3,73.32c2.39-8.45,13-42.62,13.76-45.78.85-3.51,1.45-5.9,7-5.9h10.59c4.53,0,5.9,2.39,6.75,5.64S290.68,67.6,292,73c.77,3.59,1.2,6.75-3.16,6.75h-4.7c-5,0-5.38-3.67-5.89-5.47-.43-1.11-1.11-3.84-2.31-7H258.05c-1.11,3.42-2,6.06-2.14,6.83-.43,3.59-1.11,5.64-5.21,5.64h-6.58C240.88,79.73,240.45,76.4,241.3,73.32Zm32.55-16c-2.73-10.51-5.89-22.55-6.66-26.06h-.52c-.85,4.1-4,16-6.74,26.06Z"/><path class="a" d="M299,28.39c-.77-3.59-1.2-6.75,3.07-6.75h4.79c4.95,0,5.46,3.67,5.89,5.47,1.11,5,9.23,36.82,10.59,43h.52c1.45-7.52,9.74-40.24,10.33-42.8.69-3.59.77-5.64,5.3-5.64h6.41c3.33,0,3.75,3.33,2.9,6.41-2.31,8.46-12.47,42.63-13.24,45.79-.94,3.5-1.62,5.89-7.09,5.89H317.85c-4.62,0-6-2.39-6.75-5.64S300.25,33.77,299,28.39Z"/><path class="a" d="M88.7,99.14c0-1.58-.8-3.77,2.16-3.77h7.87c6.77,0,10.49,3.88,10.3,9.11s-3.42,9.23-10,9.23H95.27v4c.08,1.58.89,3.77-2.07,3.77H90.78c-2.23,0-2.27-1.89-2.23-3.35C88.67,114.47,88.7,100.22,88.7,99.14ZM98,109.29c3.31,0,4.62-1.89,4.65-4.54s-1.11-4.69-4.45-4.69H95.27c-.15,1.73-.07,7.11-.11,9.23Z"/><path class="a" d="M113.83,99.1c0-1.57-.61-3.73,2.31-3.73h8c6.69,0,10.23,3.69,10.11,9a8,8,0,0,1-4.84,7.3l3.07,4.15a2.42,2.42,0,0,0,2.5,1.19c.85,3.73-.73,4.92-3.38,4.92-2.42,0-3.46-1.27-4.46-3.11l-3.61-6h-3.11c0,.93-.12,4.81,0,6.07.15,2-.39,2.66-2,2.66H116c-2.23,0-2.27-1.89-2.23-3.35C113.79,114.47,113.87,100.22,113.83,99.1Zm9.53,9.45c2.81,0,4.5-1.42,4.5-4.26a4.03,4.03,0,0,0-4.42-4.23h-3.23c-.07,2,0,7,0,8.49Z"/><path class="a" d="M150.61,95c7.76,0,12.06,5.84,12,13.45s-4.08,13.45-11.84,13.45c-8.11,0-12.11-5.8-12-13.45S142.54,95,150.61,95Zm5.22,13.41c0-4.23-1.19-8-5.19-8s-5.3,3.72-5.26,8,1.15,8,5.26,8,5.23-3.9,5.19-8.01Z"/><path class="a" d="M167.67,99.14c0-1.58-.81-3.77,2.15-3.77h7.88c6.76,0,10.49,3.88,10.3,9.11s-3.42,9.23-10,9.23h-3.72v4c.07,1.58.88,3.77-2.08,3.77h-2.46c-2.23,0-2.27-1.89-2.23-3.35C167.63,114.47,167.67,100.22,167.67,99.14Zm9.3,10.15c3.3,0,4.61-1.89,4.65-4.54s-1.12-4.69-4.46-4.69h-2.92c-.16,1.73-.08,7.11-.12,9.23Z"/><path class="a" d="M193.14,99.14c0-1.58-.84-3.77,2.11-3.77h2.46c2.23,0,2.27,1.85,2.23,3.31-.11,3.19-.27,16.75-.11,19.06.11,1.58.88,3.77-2.08,3.77h-2.42c-2.27,0-2.3-1.89-2.27-3.35C193.22,114.47,193.14,102,193.14,99.14Z"/><path class="a" d="M206.51,99.14c0-1.58-.8-3.77,2.15-3.77h13.22c1.73,0,2,.77,2,2V99c0,1.3-.65,1.84-2.07,1.8H213.2v5.38h7.3a1.4,1.4,0,0,1,1.62,1.49v1.73c0,1.23-.39,1.43-1.5,1.46s-4.92,0-7.46,0v5.38c2.69,0,7.57,0,8.76-.11,1.39-.08,2,.54,2,1.84V120c0,1.23-.27,1.5-2,1.5H208.7c-2.23,0-2.26-1.89-2.23-3.35C206.59,114.47,206.51,100.22,206.51,99.14Z"/><path class="a" d="M229.34,99.14c0-1.58-.81-3.77,2.15-3.77h7.07c9.22,0,13.26,5.46,13.11,13.07s-3.77,13.07-13,13.07h-7.23c-2.23,0-2.27-1.89-2.27-3.35C229.34,114.47,229.34,100.22,229.34,99.14Zm9.1,17.29c5.73,0,6.58-4,6.58-8.07s-1.2-7.91-6.58-7.91H236c-.08,3.69-.08,11.64-.08,16Z"/><path class="a" d="M255.08,118.62c1.08-3.8,5.84-19.17,6.19-20.59.38-1.58.65-2.66,3.15-2.66h4.76c2,0,2.66,1.08,3,2.54s5.07,18.14,5.65,20.56c.35,1.61.54,3-1.42,3h-2.12c-2.26,0-2.42-1.66-2.65-2.46-.19-.5-.5-1.73-1-3.15h-8c-.5,1.53-.88,2.72-1,3.07-.19,1.61-.5,2.54-2.34,2.54h-3C254.89,121.51,254.7,120,255.08,118.62Zm14.64-7.18c-1.23-4.73-2.65-10.15-3-11.72h-.24c-.38,1.84-1.8,7.18-3,11.72Z"/><path class="a" d="M282.59,99.14c0-1.58-.8-3.77,2.16-3.77h7.07c9.22,0,13.25,5.46,13.1,13.07s-3.76,13.07-13,13.07H284.7c-2.23,0-2.27-1.89-2.27-3.35C282.59,114.47,282.59,100.22,282.59,99.14Zm9.11,17.29c5.73,0,6.57-4,6.57-8.07s-1.19-7.91-6.57-7.91h-2.5c-.07,3.69-.07,11.64-.07,16Z"/><path class="a" d="M310,99.14c0-1.58-.81-3.77,2.15-3.77h13.22c1.73,0,2,.77,2,2V99c0,1.3-.65,1.84-2.07,1.8h-8.61v5.38h7.3a1.4,1.4,0,0,1,1.62,1.49v1.73c0,1.23-.39,1.43-1.5,1.46s-4.92,0-7.46,0v5.38c2.69,0,7.57,0,8.76-.11,1.38-.08,2,.54,2,1.84V120c0,1.23-.27,1.5-2,1.5H312.18c-2.23,0-2.27-1.89-2.23-3.35C310.07,114.47,310,100.22,310,99.14Z"/><path class="a" d="M332.24,116.7a4.92,4.92,0,0,1,1.15-2,12.37,12.37,0,0,0,6.88,1.92c2.34,0,3.8-1.15,3.76-2.84,0-1.27-1.11-2.19-3.61-2.81l-2.8-.69c-3.54-.88-6.07-2.73-6.23-6.84C331.2,98.29,335.16,95,341,95a16.73,16.73,0,0,1,6.61,1.23c1.69.77,2.19,1.61,1.31,4.07a6.69,6.69,0,0,1-1,1.66,14.23,14.23,0,0,0-6.5-1.73c-2.34,0-3.57,1.11-3.54,2.76,0,1.42,1.39,2,3.23,2.5l2.92.77c5,1.38,6.54,3.88,6.69,7.15.23,5.49-4.3,8.49-10.22,8.49a18.41,18.41,0,0,1-6.5-1.11C331.85,119.89,331.58,118.74,332.24,116.7Z"/><path class="b" d="M1.36,121c-.34-1,0-45,0-45h67.2"/><line class="b" y2="45.02" transform="translate(21.8 76)"/><line class="b" x2="62.36" transform="translate(6.2 85)"/><line class="b" x2="62.36" transform="translate(6.2 93.31)"/><line class="b" x2="62.36" transform="translate(6.2 101.63)"/><line class="b" x2="62.36" transform="translate(6.2 110.81)"/><path class="b" d="M15.91,76V15.03L73.23,1.53V121.89"/><line class="b" x2="57.32" transform="translate(15.91 15.03)"/><line class="b" x2="48.15" transform="translate(20.41 23.87)"/><line class="b" x2="48.15" transform="translate(20.41 32.7)"/><line class="b" x2="48.15" transform="translate(20.41 41.53)"/><line class="b" x2="48.15" transform="translate(20.41 49.93)"/><line class="b" x2="48.15" transform="translate(20.41 58.76)"/><line class="b" x2="48.15" transform="translate(20.41 67.38)"/><line class="b" y2="60.97" transform="translate(36.17 15.03)"/></g></svg>